<svg t="1749201605104" class="icon" viewBox="0 0 1024 1024" version="1.1" xmlns="http://www.w3.org/2000/svg" p-id="4443" width="128" height="128"><path d="M234.666667 128a128 128 0 0 1 42.666666 248.704V853.333333a42.666667 42.666667 0 0 1-85.226666 3.2L192 853.333333V376.725333A128 128 0 0 1 234.666667 128z m277.333333 0a42.666667 42.666667 0 0 1 42.56 39.466667L554.666667 170.666667v220.629333a128.042667 128.042667 0 0 1 0 241.408V853.333333a42.666667 42.666667 0 0 1-85.226667 3.2L469.333333 853.333333V632.725333a128.042667 128.042667 0 0 1 0-241.450666V170.666667a42.666667 42.666667 0 0 1 42.666667-42.666667z m277.333333 0a42.666667 42.666667 0 0 1 42.56 39.466667L832 170.666667v476.629333a128 128 0 1 1-85.333333 0V170.666667a42.666667 42.666667 0 0 1 42.666666-42.666667z m0 597.333333a42.666667 42.666667 0 1 0 0 85.333334 42.666667 42.666667 0 0 0 0-85.333334zM512 469.333333a42.666667 42.666667 0 1 0 0 85.333334 42.666667 42.666667 0 0 0 0-85.333334zM234.666667 213.333333a42.666667 42.666667 0 1 0 0 85.333334 42.666667 42.666667 0 0 0 0-85.333334z" fill="#E0F2FE"></path></svg>