<svg t="1748421316293" class="icon" viewBox="0 0 1024 1024" version="1.1" xmlns="http://www.w3.org/2000/svg" p-id="6019" width="128" height="128"><path d="M123.361882 95.653647a40.176941 40.176941 0 0 0-40.176941 40.176941v602.352941c0 22.166588 18.010353 40.176941 40.176941 40.176942h140.528942v60.235294a40.176941 40.176941 0 0 0 58.127058 35.900235l192.331294-96.135529h412.129883a40.176941 40.176941 0 0 0 40.176941-40.176942v-602.352941a40.176941 40.176941 0 0 0-40.176941-40.176941H123.361882z m40.176942 602.352941V176.007529h722.823529v521.999059H504.771765a40.116706 40.116706 0 0 0-17.950118 4.216471l-142.637176 71.378823v-35.418353a40.176941 40.176941 0 0 0-40.176942-40.176941H163.538824z m160.587294-301.17647a40.176941 40.176941 0 0 0 0 80.353882h401.588706a40.176941 40.176941 0 1 0 0-80.353882H324.065882z" fill="#E0F2FE"></path></svg>