<svg t="1748421532798" class="icon" viewBox="0 0 1024 1024" version="1.1" xmlns="http://www.w3.org/2000/svg" width="128" height="128"><path d="M980 941.6H89.6V832h74.4c20.8 0 37.6-16.8 37.6-37.6s-16.8-37.6-37.6-37.6h-74.4v-72c20.8 0 37.6-16.8 37.6-37.6s-16.8-37.6-37.6-37.6v-72h74.4c20.8 0 37.6-16.8 37.6-37.6s-16.8-37.6-37.6-37.6h-74.4v-72c20.8 0 37.6-16.8 37.6-37.6s-16.8-37.6-37.6-37.6v-72h74.4c20.8 0 37.6-16.8 37.6-37.6S184.8 168 164 168h-74.4V48c0-20.8-16.8-37.6-37.6-37.6S14.4 27.2 14.4 48v890.4c0 40.8 33.6 74.4 74.4 74.4h890.4c20.8 0 37.6-16.8 37.6-37.6 0.8-16.8-16-33.6-36.8-33.6z" fill="#E0F2FE"></path><path d="M860.8 516c21.6 0 38.4-17.6 38.4-38.4v-192c0-2.4 0-4.8-0.8-7.2 0-0.8-0.8-2.4-0.8-3.2 0-1.6-0.8-2.4-0.8-4-0.8-1.6-1.6-2.4-1.6-4-0.8-0.8-0.8-1.6-1.6-2.4-2.4-4-6.4-8-10.4-10.4-0.8-0.8-1.6-0.8-3.2-1.6-0.8-0.8-2.4-1.6-4-1.6-0.8-0.8-2.4-0.8-4-0.8-0.8 0-2.4-0.8-3.2-0.8-2.4-0.8-4.8-0.8-7.2-0.8h-192c-21.6 0-38.4 17.6-38.4 38.4s17.6 38.4 38.4 38.4H768L564 536.8l-96-80c-15.2-15.2-39.2-15.2-54.4 0l-160 160c-15.2 15.2-15.2 39.2 0 54.4 7.2 7.2 17.6 11.2 27.2 11.2s20-4 27.2-11.2L440 539.2l96.8 79.2c15.2 15.2 39.2 15.2 54.4 0l231.2-239.2v100c0 20 17.6 36.8 38.4 36.8z" fill="#E0F2FE"></path></svg>