<svg t="1748423974050" class="icon" viewBox="0 0 1027 1024" version="1.1" xmlns="http://www.w3.org/2000/svg" p-id="15097" width="128" height="128"><path d="M462.147536 464.941009a72.281638 72.281638 0 0 1 14.851144-43.551206 282.141353 282.141353 0 0 1 43.824539-45.008986 307.925853 307.925853 0 0 0 40.119346-41.668239 60.285316 60.285316 0 0 0 11.176321-36.444523 59.404573 59.404573 0 0 0-60.224575-60.740873 62.957914 62.957914 0 0 0-43.095649 16.491147 108.57431 108.57431 0 0 0-28.973396 48.04603l-65.357179-28.517839a152.732924 152.732924 0 0 1 52.358632-80.663879 140.493638 140.493638 0 0 1 88.074265-28.153395 150.880327 150.880327 0 0 1 69.457188 16.126702 126.583978 126.583978 0 0 1 50.14159 45.403802 120.692114 120.692114 0 0 1 18.586707 66.055699 112.006169 112.006169 0 0 1-16.339295 59.677907 267.259839 267.259839 0 0 1-49.777145 56.640864 420.994988 420.994988 0 0 0-41.243052 40.149717 46.64899 46.64899 0 0 0-11.510395 30.370436 86.555743 86.555743 0 0 0 3.037043 20.257081h-66.81496a83.123884 83.123884 0 0 1-8.291129-34.470445z m44.55343 211.6212a56.215678 56.215678 0 0 1-41.212682-16.491147 55.608269 55.608269 0 0 1-16.73411-41.273423 56.944568 56.944568 0 0 1 16.73411-41.668238 55.729751 55.729751 0 0 1 41.212682-16.885963 56.792716 56.792716 0 0 1 57.977163 58.554201 55.69938 55.69938 0 0 1-16.70374 41.273423 56.3979 56.3979 0 0 1-41.273423 16.491147z" fill="#E0F2FE"></path><path d="M44.76663 1024a44.796394 44.796394 0 0 1-19.011893-4.251861A44.310467 44.310467 0 0 1 0.000607 979.264347V108.483198A108.60468 108.60468 0 0 1 108.483806 0h810.586944a108.60468 108.60468 0 0 1 108.483198 108.483198v620.042827a108.60468 108.60468 0 0 1-108.483198 108.452828H312.512397a77.596465 77.596465 0 0 0-49.716404 18.04004l-189.511523 158.533677a44.55343 44.55343 0 0 1-28.51784 10.44743zM108.483806 60.740873A47.803067 47.803067 0 0 0 60.74148 108.483198V944.824273l163.089243-136.39363a138.51956 138.51956 0 0 1 88.681674-32.192662h606.558353a47.772696 47.772696 0 0 0 47.742326-47.711956V108.483198A47.803067 47.803067 0 0 0 919.07075 60.740873z" fill="#E0F2FE"></path></svg>