<svg t="1748423750877" class="icon" viewBox="0 0 1024 1024" version="1.1" xmlns="http://www.w3.org/2000/svg" p-id="13013" width="128" height="128"><path d="M642.844444 682.666667l39.822223-39.822223 227.555555 227.555556-39.822222 39.822222-227.555556-227.555555zM853.333333 113.777778h56.888889v568.888889h-56.888889V113.777778zM170.666667 113.777778h682.666666v56.888889H170.666667V113.777778z m0 739.555555h512v56.888889H113.777778V113.777778h56.888889v739.555555z" fill="#E0F2FE"></path><path d="M512 739.555556c-125.155556 0-227.555556-102.4-227.555556-227.555556s102.4-227.555556 227.555556-227.555556 227.555556 102.4 227.555556 227.555556-102.4 227.555556-227.555556 227.555556z m0-56.888889c96.711111 0 170.666667-73.955556 170.666667-170.666667s-73.955556-170.666667-170.666667-170.666667-170.666667 73.955556-170.666667 170.666667 73.955556 170.666667 170.666667 170.666667z" fill="#E0F2FE" p-id="13015"></path></svg>